<?xml version="1.0" encoding="utf-8"?>
<!-- Generator: Adobe Illustrator 16.0.3, SVG Export Plug-In . SVG Version: 6.00 Build 0)  -->
<!DOCTYPE svg PUBLIC "-//W3C//DTD SVG 1.1//EN" "http://www.w3.org/Graphics/SVG/1.1/DTD/svg11.dtd">
<svg version="1.1" id="Layer_1" xmlns="http://www.w3.org/2000/svg" xmlns:xlink="http://www.w3.org/1999/xlink" x="0px" y="0px"
	 width="161px" height="40px" viewBox="0 364 161 40" enable-background="new 0 364 161 40" xml:space="preserve">
<g>
	<rect x="45.588" y="364.987" fill="#732282" width="4.981" height="13.363"/>
	<path fill="#732282" d="M27.608,400.46c-0.486,0-11.055,0-17.737-5.588c-0.243-0.122-4.981-3.888-4.859-10.934
		c0.122-3.645,0.851-7.654,5.832-11.541l0,0c1.093-0.972,6.803-4.859,16.765-4.617c0.486,0,11.542-0.122,17.008,6.074v-8.868h-4.859
		v1.093c0,0-4.617-1.215-9.719-1.701c-0.851-0.122-3.037-0.122-4.374-0.122c-2.187,0-5.832,0.243-9.598,1.336
		c-7.289,2.187-15.307,7.167-16.036,18.102c0,0-2.065,19.559,27.457,20.045c0,0,8.625,0.121,14.213-2.188v1.216h4.616v-8.141
		c-2.065,1.701-8.139,5.711-18.344,5.711C27.852,400.46,27.73,400.46,27.608,400.46"/>
	<polygon fill="#732282" points="27.852,385.153 47.29,385.153 47.29,402.89 52.392,402.89 52.392,381.873 27.852,381.873 	"/>
	<path fill="#732282" d="M27.852,389.526h13.85v2.43c0,0,0,0,0,0.122c-4.252,4.13-10.812,4.374-14.579,4.13c0,0,0,0-0.121,0
		c-3.401-0.243-16.037-1.943-16.037-12.148c0,0-0.364-6.803,7.29-10.205c2.43-1.093,5.709-1.822,9.84-1.822
		c0,0,8.14-0.121,11.784,4.009v2.308h4.859v-2.916c-4.738-6.803-16.887-6.682-17.008-6.682c-9.233-0.122-14.335,3.159-15.793,4.13
		l0,0l-0.486,0.243c-4.981,3.766-5.467,7.532-5.467,10.812c-0.122,6.56,4.495,10.083,4.495,10.204
		c6.439,5.346,17.009,5.468,17.129,5.346c0.122,0,0.243,0,0.365,0c11.298,0,17.372-5.103,18.344-5.953v-7.289H27.852V389.526z"/>
	<path fill="#732282" d="M100.744,382.481c3.28-3.159,3.037-6.439,3.037-6.439c0.244-6.925-5.71-9.598-10.812-10.448
		c-2.916-0.486-6.317-0.486-6.317-0.486H58.953v3.158h24.661c0.122,0,4.13,0,5.709,0.122c1.702,0.122,2.43,0.122,3.524,0.486
		c3.888,0.851,5.953,3.159,5.953,6.561c0,0,0.243,2.551-1.701,4.738c-1.093,1.215-2.672,2.065-4.616,2.551
		c3.888,0.851,8.99,2.915,9.112,8.14c0,0.121,0.242,2.672-1.822,5.102c-2.188,2.431-5.953,3.767-11.177,3.767H59.073v3.158h29.643
		c18.345,0,17.859-11.662,17.859-11.662C106.575,384.667,100.744,382.481,100.744,382.481"/>
	<path fill="#732282" d="M87.744,386.368c0,0,2.916-0.122,4.981,0.729c1.336,0.607,2.43,1.579,2.673,3.037
		c0,0.364,0.121,0.607,0,1.094c-0.122,1.215-1.094,4.13-7.775,4.13H73.287v-8.989H87.744z M68.186,398.638h20.288
		c4.981,0,8.503-1.214,10.447-3.401c1.823-2.065,1.58-4.373,1.58-4.373c-0.243-7.289-12.149-7.654-12.513-7.654H68.186V398.638z"/>
	<polygon fill="#732282" points="67.213,369.239 58.953,369.239 58.953,372.519 62.111,372.519 62.111,395.357 58.953,395.357 
		58.953,398.638 67.213,398.638 	"/>
	<path fill="#732282" d="M73.409,378.836v-6.438h13.243c0,0,2.308,0,3.887,0.486c1.093,0.486,2.187,1.336,2.187,2.673
		c0,0,0.608,3.28-5.102,3.28H73.409z M96.249,379.443c1.701-1.822,1.458-4.009,1.458-4.009c0-3.645-2.794-5.103-5.224-5.588
		c-1.093-0.243-1.701-0.365-3.401-0.365c-1.458-0.121-5.589-0.121-5.589-0.121H68.186v12.877h19.802
		C91.875,382.116,94.669,381.266,96.249,379.443"/>
	<polygon fill="#732282" points="148.123,395.357 144.722,395.357 144.722,398.638 152.253,398.638 152.253,370.454 
		135.245,395.723 118.48,370.454 118.48,398.638 125.891,398.638 125.891,395.357 122.611,395.357 122.611,383.817 131.357,397.059 
		135.245,402.77 139.254,397.059 148.123,383.817 	"/>
	<rect x="144.722" y="399.61" fill="#732282" width="16.278" height="3.279"/>
	<polygon fill="#732282" points="153.225,398.638 161,398.638 161,395.357 157.356,395.357 157.356,372.519 161,372.519 
		161,369.239 153.225,369.239 	"/>
	<polygon fill="#732282" points="109.855,402.89 125.891,402.77 125.891,399.61 109.855,399.61 	"/>
	<polygon fill="#732282" points="149.823,364.987 135.245,387.34 120.546,364.987 109.855,364.987 109.855,368.267 118.238,368.267 
		118.359,368.51 135.245,393.9 152.497,368.267 152.618,368.267 152.618,368.267 160.879,368.267 160.879,364.987 	"/>
	<polygon fill="#732282" points="117.509,369.239 109.855,369.239 109.855,372.519 113.378,372.519 113.378,395.357 
		109.855,395.357 109.855,398.638 117.509,398.638 	"/>
</g>
</svg>
